Coordinates
version=1
nRows=17
nColumns=38
inDegrees=no

Units are S.I. units (second, meters, Newtons, ...)
If the header above contains a line with 'inDegrees', this indicates whether rotational values are in degrees (yes) or radians (no).

endheader
time	pelvis_tilt	pelvis_list	pelvis_rotation	pelvis_tx	pelvis_ty	pelvis_tz	hip_flexion_r	hip_adduction_r	hip_rotation_r	knee_angle_r	ankle_angle_r	subtalar_angle_r	mtp_angle_r	hip_flexion_l	hip_adduction_l	hip_rotation_l	knee_angle_l	ankle_angle_l	subtalar_angle_l	mtp_angle_l	lumbar_extension	lumbar_bending	lumbar_rotation	arm_flex_r	arm_add_r	arm_rot_r	elbow_flex_r	pro_sup_r	wrist_flex_r	wrist_dev_r	arm_flex_l	arm_add_l	arm_rot_l	elbow_flex_l	pro_sup_l	wrist_flex_l	wrist_dev_l
21.44	1.16709	1.40352	0.314257	0.728738	-0.494611	0.979239	0.306802	0.145883	-0.179983	0.379034	0.0146883	0	0	0.00375146	-0.110302	-0.0996606	0	0.0323551	0	0	-0.090831	0.192438	-0.0222164	-0.0111214	-0.400761	0.210728	1.5511	1.5708	0	0	0.0422259	-0.33492	0.388685	1.39886	1.5708	0	0
21.45	1.18721	1.40563	0.296674	0.729589	-0.491747	0.979268	0.29467	0.147746	-0.181115	0.369048	0.00342075	0	0	-0.00319837	-0.110151	-0.0993617	0	0.0377855	0	0	-0.090663	0.191762	-0.0238498	-0.0307925	-0.395836	0.207217	1.5224	1.5708	0	0	0.0239989	-0.327709	0.382368	1.36349	1.5708	0	0
21.46	1.20549	1.40835	0.281651	0.730381	-0.488845	0.979149	0.28184	0.148578	-0.180683	0.357613	-0.00280749	0	0	-0.00973432	-0.109148	-0.0978784	0	0.0431545	0	0	-0.0899151	0.190662	-0.026398	-0.0474897	-0.391264	0.205579	1.49061	1.5708	0	0	0.00627183	-0.320757	0.376018	1.32708	1.5708	0	0
21.47	1.22523	1.41172	0.265399	0.731113	-0.485919	0.978945	0.268402	0.14805	-0.181139	0.346415	-0.00024692	0	0	-0.016462	-0.107364	-0.0958322	0	0.0489242	0	0	-0.0895565	0.189214	-0.0289126	-0.0624248	-0.387024	0.203308	1.45575	1.5708	0	0	-0.0101748	-0.313307	0.368549	1.29079	1.5708	0	0
21.48	1.24393	1.41571	0.248349	0.731968	-0.482857	0.978666	0.254564	0.146804	-0.180526	0.335362	0.00527201	0	0	-0.0235348	-0.104757	-0.0956436	0	0.0556256	0	0	-0.0890057	0.187223	-0.0293651	-0.0761041	-0.38303	0.200812	1.41828	1.5708	0	0	-0.0251742	-0.304374	0.359522	1.2531	1.5708	0	0
21.49	1.25261	1.41971	0.241788	0.732876	-0.479461	0.978188	0.241492	0.144051	-0.181031	0.323412	0.0099058	0	0	-0.0381145	-0.103411	-0.101738	0	0.0650676	0	0	-0.0859619	0.185049	-0.0294344	-0.0884352	-0.379854	0.198297	1.37937	1.5708	0	0	-0.0383882	-0.295052	0.348737	1.21285	1.5708	0	0
21.5	1.27834	1.42394	0.216892	0.733742	-0.476535	0.977905	0.227001	0.141997	-0.180747	0.31274	0.0137457	0	0	-0.0411934	-0.101363	-0.103593	0	0.0760446	0	0	-0.0870101	0.183769	-0.0269121	-0.0987343	-0.376703	0.197219	1.34189	1.5708	0	0	-0.0482651	-0.283999	0.339494	1.17097	1.5708	0	0
21.51	1.3127	1.4269	0.184125	0.734567	-0.473862	0.977713	0.212701	0.140956	-0.181901	0.303114	0.017072	0	0	-0.0426012	-0.101111	-0.10403	0.00341377	0.0887608	0	0	-0.0911909	0.184598	-0.0284097	-0.103133	-0.374913	0.201996	1.30565	1.5708	0	0	-0.0647876	-0.232697	0.105645	1.18167	0.684528	0	0
21.52	1.34476	1.44341	0.159784	0.735917	-0.469981	0.9764	0.195853	0.128406	-0.170478	0.293924	0.0284551	0	0	-0.0438737	-0.0872122	-0.102818	0.0226148	0.104952	0	0	-0.0889328	0.166999	-0.0280989	-0.120994	-0.36599	0.194236	1.27263	1.5708	0	0	-0.0666851	-0.27382	0.333996	1.09569	1.5708	0	0
21.53	1.38171	1.44309	0.121482	0.737	-0.467631	0.976434	0.186133	0.130092	-0.171812	0.289974	0.0289667	0	0	-0.0381546	-0.0909858	-0.110054	0.0504686	0.121645	0	0	-0.0936568	0.171336	-0.0252479	-0.124212	-0.366304	0.200751	1.23886	1.5708	0	0	-0.0776473	-0.220541	0.0892082	1.09596	0.660132	0	0
21.54	1.45665	1.43171	0.0449487	0.737593	-0.465836	0.977661	0.177738	0.139751	-0.180926	0.298656	0.0283194	0	0	-0.0337886	-0.107214	-0.119739	0.0830926	0.137725	0	0	-0.10298	0.188677	-0.0099989	-0.13394	-0.369205	0.196699	1.20784	1.5708	0	0	-0.0671565	-0.245712	0.333468	0.992182	1.5708	0	0
21.55	1.43018	1.44782	0.0724986	0.738986	-0.463082	0.975814	0.174238	0.120716	-0.188786	0.293966	0.0414558	0	0	-0.016541	-0.0931494	-0.11991	0.11689	0.151601	0	0	-0.0956238	0.171122	-0.00755618	-0.143545	-0.364089	0.20103	1.17949	1.5708	0	0	-0.0743657	-0.242193	0.333393	0.955586	1.5708	0	0
21.56	1.46522	1.43574	0.0434814	0.738898	-0.463347	0.977982	0.175261	0.133567	-0.190628	0.30303	0.0328237	0	0	0.00116696	-0.112807	-0.151	0.154608	0.159338	0	0	-0.105505	0.188854	-0.00415548	-0.138788	-0.364394	0.205269	1.14163	1.5708	0	0	-0.0628478	-0.223578	0.335012	0.891412	1.5708	0	0
21.57	1.50593	1.42527	-0.00515386	0.740368	-0.459976	0.977483	0.162541	0.147144	-0.185275	0.297953	0.0349175	0	0	0.0135547	-0.128033	-0.133008	0.204016	0.176786	0	0	-0.108724	0.202566	0.0115581	-0.148649	-0.369474	0.212432	1.12044	1.5708	0	0	-0.0654938	-0.210084	0.33796	0.842104	1.5708	0	0
21.58	1.5172	1.42337	-0.0162821	0.741268	-0.458195	0.977254	0.157479	0.150081	-0.184822	0.29558	0.0365754	0	0	0.0321666	-0.135661	-0.137334	0.247878	0.186469	0	0	-0.110559	0.205883	0.0183901	-0.152078	-0.369728	0.22085	1.09285	1.5708	0	0	-0.0641409	-0.199477	0.340189	0.792016	1.5708	0	0
21.59	1.52373	1.42279	-0.0227908	0.742165	-0.456493	0.977011	0.153755	0.151704	-0.184509	0.294145	0.0385009	0	0	0.0509601	-0.142058	-0.142341	0.290074	0.193954	0	0	-0.111751	0.207174	0.0244775	-0.153834	-0.368646	0.229226	1.06313	1.5708	0	0	-0.0629095	-0.189261	0.342034	0.742124	1.55768	0	0
21.6	1.53483	1.42305	-0.03396	0.743059	-0.454831	0.97698	0.149292	0.152667	-0.183427	0.292426	0.0396971	0	0	0.0674422	-0.147441	-0.146997	0.328746	0.198787	0	0	-0.113774	0.206936	0.0302522	-0.153484	-0.366134	0.23701	1.03056	1.5708	0	0	-0.0606261	-0.180041	0.34929	0.691804	1.51603	0	0
